<svg xmlns="http://www.w3.org/2000/svg" version="1.1" xmlns:xlink="http://www.w3.org/1999/xlink" xmlns:svgjs="http://svgjs.com/svgjs" width="200" height="200" preserveAspectRatio="none" viewBox="0 0 200 200">
    <g mask="url(&quot;#SvgjsMask1032&quot;)" fill="none">
        <rect width="200" height="200" x="0" y="0" fill="rgba(23, 115, 145, 1)"></rect>
        <path d="M0,69.645C16.414,72.449,34.39,84.306,48.581,75.594C62.717,66.916,58.869,45.099,65.052,29.708C70.857,15.259,84.134,3.52,83.79,-12.047C83.434,-28.175,73.493,-42.341,63.187,-54.752C52.718,-67.359,40.266,-78.97,24.502,-83.445C8.803,-87.902,-7.68,-84.074,-23.285,-79.3C-38.747,-74.57,-52.83,-67.024,-64.781,-56.133C-77.92,-44.158,-92.44,-31.248,-95.267,-13.697C-98.105,3.923,-90.458,22.163,-79.683,36.39C-69.949,49.242,-53.846,54.427,-38.968,60.636C-26.41,65.877,-13.414,67.353,0,69.645" fill="#135e77"></path>
        <path d="M200 272.19C217.25900000000001 274.503 234.373 284.905 250.733 278.94100000000003 267.908 272.68 283.28700000000003 257.834 287.907 240.14600000000002 292.433 222.818 279.008 206.574 274.13599999999997 189.341 270.021 174.786 269.12 159.779 261.492 146.71699999999998 252.638 131.555 244.179 111.476 226.887 108.43 209.289 105.33 195.594 123.405 180.148 132.389 168.557 139.131 156.841 144.881 147.566 154.565 137.89600000000002 164.66 128.856 175.70499999999998 125.629 189.307 122.236 203.611 123.52 218.778 129.107 232.376 134.824 246.289 144.199 259.055 157.314 266.421 170.09199999999998 273.597 185.475 270.243 200 272.19" fill="#1b88ab"></path>
    </g>
    <defs>
        <mask id="SvgjsMask1032">
            <rect width="200" height="200" fill="#ffffff"></rect>
        </mask>
    </defs>
</svg>